<mxfile host="drawio-plugin" modified="2021-07-13T04:07:06.869Z" agent="5.0 (Windows NT 6.2; Win64; x64) AppleWebKit/537.36 (KHTML, like Gecko) Chrome/87.0.4280.141 Safari/537.36" etag="Zhb6P_FBtse8suAa5KTC" version="14.7.4" type="embed" pages="3"><diagram id="_caPxgxJPNg9HO-UiPLn" name="Use case"><mxGraphModel dx="766" dy="528" grid="1" gridSize="10" guides="1" tooltips="1" connect="1" arrows="1" fold="1" page="1" pageScale="1" pageWidth="850" pageHeight="1100" math="0" shadow="0"><root><mxCell id="0"/><mxCell id="1" parent="0"/><mxCell id="awGf8sO_y0JsvmvpcRsz-3" style="rounded=0;orthogonalLoop=1;jettySize=auto;html=1;endArrow=none;endFill=0;" parent="1" source="awGf8sO_y0JsvmvpcRsz-1" target="awGf8sO_y0JsvmvpcRsz-2" edge="1"><mxGeometry relative="1" as="geometry"/></mxCell><mxCell id="awGf8sO_y0JsvmvpcRsz-1" value="&amp;lt;&amp;lt;service&amp;gt;&amp;gt;&lt;br&gt;Section integrity sensor" style="shape=umlActor;verticalLabelPosition=bottom;verticalAlign=top;html=1;outlineConnect=0;" parent="1" vertex="1"><mxGeometry x="80" y="115" width="30" height="60" as="geometry"/></mxCell><mxCell id="awGf8sO_y0JsvmvpcRsz-2" value="Notify section state&lt;br&gt;(OK or BAD)" style="ellipse;whiteSpace=wrap;html=1;" parent="1" vertex="1"><mxGeometry x="200" y="120" width="120" height="50" as="geometry"/></mxCell><mxCell id="awGf8sO_y0JsvmvpcRsz-11" style="edgeStyle=none;rounded=0;orthogonalLoop=1;jettySize=auto;html=1;endArrow=none;endFill=0;" parent="1" source="awGf8sO_y0JsvmvpcRsz-4" target="awGf8sO_y0JsvmvpcRsz-8" edge="1"><mxGeometry relative="1" as="geometry"/></mxCell><mxCell id="awGf8sO_y0JsvmvpcRsz-12" style="edgeStyle=none;rounded=0;orthogonalLoop=1;jettySize=auto;html=1;endArrow=none;endFill=0;" parent="1" source="awGf8sO_y0JsvmvpcRsz-4" target="awGf8sO_y0JsvmvpcRsz-9" edge="1"><mxGeometry relative="1" as="geometry"/></mxCell><mxCell id="awGf8sO_y0JsvmvpcRsz-13" style="edgeStyle=none;rounded=0;orthogonalLoop=1;jettySize=auto;html=1;endArrow=none;endFill=0;" parent="1" source="awGf8sO_y0JsvmvpcRsz-4" target="awGf8sO_y0JsvmvpcRsz-10" edge="1"><mxGeometry relative="1" as="geometry"/></mxCell><mxCell id="awGf8sO_y0JsvmvpcRsz-4" value="Section manager" style="shape=umlActor;verticalLabelPosition=bottom;verticalAlign=top;html=1;outlineConnect=0;" parent="1" vertex="1"><mxGeometry x="80" y="255" width="30" height="60" as="geometry"/></mxCell><mxCell id="awGf8sO_y0JsvmvpcRsz-8" value="Edit section" style="ellipse;whiteSpace=wrap;html=1;" parent="1" vertex="1"><mxGeometry x="200" y="200" width="120" height="50" as="geometry"/></mxCell><mxCell id="awGf8sO_y0JsvmvpcRsz-9" value="Edit sensor" style="ellipse;whiteSpace=wrap;html=1;" parent="1" vertex="1"><mxGeometry x="200" y="260" width="120" height="50" as="geometry"/></mxCell><mxCell id="awGf8sO_y0JsvmvpcRsz-10" value="Bind section and sensor" style="ellipse;whiteSpace=wrap;html=1;" parent="1" vertex="1"><mxGeometry x="200" y="320" width="120" height="50" as="geometry"/></mxCell><mxCell id="awGf8sO_y0JsvmvpcRsz-19" style="edgeStyle=none;rounded=0;orthogonalLoop=1;jettySize=auto;html=1;endArrow=none;endFill=0;" parent="1" source="awGf8sO_y0JsvmvpcRsz-14" target="awGf8sO_y0JsvmvpcRsz-18" edge="1"><mxGeometry relative="1" as="geometry"/></mxCell><mxCell id="awGf8sO_y0JsvmvpcRsz-14" value="&lt;div&gt;Operator&lt;/div&gt;" style="shape=umlActor;verticalLabelPosition=bottom;verticalAlign=top;html=1;outlineConnect=0;" parent="1" vertex="1"><mxGeometry x="610" y="255" width="30" height="60" as="geometry"/></mxCell><mxCell id="awGf8sO_y0JsvmvpcRsz-15" value="extend" style="endArrow=classic;html=1;exitX=1;exitY=0.5;exitDx=0;exitDy=0;dashed=1;" parent="1" source="awGf8sO_y0JsvmvpcRsz-2" target="awGf8sO_y0JsvmvpcRsz-16" edge="1"><mxGeometry width="50" height="50" relative="1" as="geometry"><mxPoint x="390" y="180" as="sourcePoint"/><mxPoint x="440" y="145" as="targetPoint"/></mxGeometry></mxCell><mxCell id="awGf8sO_y0JsvmvpcRsz-17" style="edgeStyle=none;rounded=0;orthogonalLoop=1;jettySize=auto;html=1;endArrow=none;endFill=0;" parent="1" source="awGf8sO_y0JsvmvpcRsz-16" target="awGf8sO_y0JsvmvpcRsz-14" edge="1"><mxGeometry relative="1" as="geometry"/></mxCell><mxCell id="awGf8sO_y0JsvmvpcRsz-16" value="Prepare failure report" style="ellipse;whiteSpace=wrap;html=1;" parent="1" vertex="1"><mxGeometry x="440" y="120" width="120" height="50" as="geometry"/></mxCell><mxCell id="awGf8sO_y0JsvmvpcRsz-18" value="Organize repair crew" style="ellipse;whiteSpace=wrap;html=1;" parent="1" vertex="1"><mxGeometry x="440" y="260" width="120" height="50" as="geometry"/></mxCell></root></mxGraphModel></diagram><diagram id="GDD68MZtonCWNQot-Uo-" name="BPMN"><mxGraphModel dx="766" dy="528" grid="1" gridSize="10" guides="1" tooltips="1" connect="1" arrows="1" fold="1" page="1" pageScale="1" pageWidth="850" pageHeight="1100" math="0" shadow="0"><root><mxCell id="XwBvbb46LvA4ZnhJx7O_-0"/><mxCell id="XwBvbb46LvA4ZnhJx7O_-1" parent="XwBvbb46LvA4ZnhJx7O_-0"/><mxCell id="V02ybIQ-wi3KzgMm7utV-2" value="Operate network integrity" style="swimlane;html=1;childLayout=stackLayout;resizeParent=1;resizeParentMax=0;horizontal=1;startSize=20;horizontalStack=0;" parent="XwBvbb46LvA4ZnhJx7O_-1" vertex="1"><mxGeometry x="40" y="240" width="820" height="790" as="geometry"/></mxCell><mxCell id="msQ-_wMWBh3BXoXiAgQr-0" value="&lt;div&gt;Sensor engineer&lt;/div&gt;" style="swimlane;html=1;startSize=20;horizontal=0;" parent="V02ybIQ-wi3KzgMm7utV-2" vertex="1"><mxGeometry y="20" width="820" height="275" as="geometry"/></mxCell><mxCell id="ffYO8n2zBD1AL0mYHZ1U-0" value="" style="points=[[0.145,0.145,0],[0.5,0,0],[0.855,0.145,0],[1,0.5,0],[0.855,0.855,0],[0.5,1,0],[0.145,0.855,0],[0,0.5,0]];shape=mxgraph.bpmn.event;html=1;verticalLabelPosition=bottom;labelBackgroundColor=#ffffff;verticalAlign=top;align=center;perimeter=ellipsePerimeter;outlineConnect=0;aspect=fixed;outline=standard;symbol=general;" parent="msQ-_wMWBh3BXoXiAgQr-0" vertex="1"><mxGeometry x="40" y="150" width="30" height="30" as="geometry"/></mxCell><mxCell id="ffYO8n2zBD1AL0mYHZ1U-3" value="" style="points=[[0.25,0.25,0],[0.5,0,0],[0.75,0.25,0],[1,0.5,0],[0.75,0.75,0],[0.5,1,0],[0.25,0.75,0],[0,0.5,0]];shape=mxgraph.bpmn.gateway2;html=1;verticalLabelPosition=bottom;labelBackgroundColor=#ffffff;verticalAlign=top;align=center;perimeter=rhombusPerimeter;outlineConnect=0;outline=none;symbol=none;" parent="msQ-_wMWBh3BXoXiAgQr-0" vertex="1"><mxGeometry x="120" y="140" width="50" height="50" as="geometry"/></mxCell><mxCell id="msQ-_wMWBh3BXoXiAgQr-20" style="edgeStyle=orthogonalEdgeStyle;orthogonalLoop=1;jettySize=auto;html=1;labelBackgroundColor=#ffffff;endFill=1;" parent="msQ-_wMWBh3BXoXiAgQr-0" source="ffYO8n2zBD1AL0mYHZ1U-4" target="msQ-_wMWBh3BXoXiAgQr-55" edge="1"><mxGeometry relative="1" as="geometry"><mxPoint x="420" y="165" as="targetPoint"/></mxGeometry></mxCell><mxCell id="ffYO8n2zBD1AL0mYHZ1U-4" value="Set section" style="points=[[0.25,0,0],[0.5,0,0],[0.75,0,0],[1,0.25,0],[1,0.5,0],[1,0.75,0],[0.75,1,0],[0.5,1,0],[0.25,1,0],[0,0.75,0],[0,0.5,0],[0,0.25,0]];shape=mxgraph.bpmn.task;whiteSpace=wrap;rectStyle=rounded;size=10;taskMarker=abstract;" parent="msQ-_wMWBh3BXoXiAgQr-0" vertex="1"><mxGeometry x="260" y="110" width="80" height="30" as="geometry"/></mxCell><mxCell id="msQ-_wMWBh3BXoXiAgQr-21" style="edgeStyle=orthogonalEdgeStyle;orthogonalLoop=1;jettySize=auto;html=1;labelBackgroundColor=#ffffff;endFill=1;entryX=0.5;entryY=1;entryDx=0;entryDy=0;entryPerimeter=0;" parent="msQ-_wMWBh3BXoXiAgQr-0" source="ffYO8n2zBD1AL0mYHZ1U-5" target="msQ-_wMWBh3BXoXiAgQr-55" edge="1"><mxGeometry relative="1" as="geometry"><mxPoint x="420" y="165" as="targetPoint"/><Array as="points"><mxPoint x="445" y="235"/></Array></mxGeometry></mxCell><mxCell id="ffYO8n2zBD1AL0mYHZ1U-5" value="Set sensor" style="points=[[0.25,0,0],[0.5,0,0],[0.75,0,0],[1,0.25,0],[1,0.5,0],[1,0.75,0],[0.75,1,0],[0.5,1,0],[0.25,1,0],[0,0.75,0],[0,0.5,0],[0,0.25,0]];shape=mxgraph.bpmn.task;whiteSpace=wrap;rectStyle=rounded;size=10;taskMarker=abstract;" parent="msQ-_wMWBh3BXoXiAgQr-0" vertex="1"><mxGeometry x="180" y="220" width="80" height="30" as="geometry"/></mxCell><mxCell id="ffYO8n2zBD1AL0mYHZ1U-2" style="edgeStyle=none;rounded=0;orthogonalLoop=1;jettySize=auto;html=1;endArrow=classic;endFill=1;" parent="msQ-_wMWBh3BXoXiAgQr-0" source="ffYO8n2zBD1AL0mYHZ1U-0" target="ffYO8n2zBD1AL0mYHZ1U-3" edge="1"><mxGeometry relative="1" as="geometry"><mxPoint x="120" y="180" as="targetPoint"/></mxGeometry></mxCell><mxCell id="ffYO8n2zBD1AL0mYHZ1U-6" style="edgeStyle=orthogonalEdgeStyle;rounded=1;orthogonalLoop=1;jettySize=auto;html=1;endArrow=classic;endFill=1;" parent="msQ-_wMWBh3BXoXiAgQr-0" source="ffYO8n2zBD1AL0mYHZ1U-3" target="ffYO8n2zBD1AL0mYHZ1U-4" edge="1"><mxGeometry relative="1" as="geometry"><Array as="points"><mxPoint x="145" y="125"/></Array></mxGeometry></mxCell><mxCell id="ffYO8n2zBD1AL0mYHZ1U-7" style="edgeStyle=orthogonalEdgeStyle;orthogonalLoop=1;jettySize=auto;html=1;endFill=1;" parent="msQ-_wMWBh3BXoXiAgQr-0" source="ffYO8n2zBD1AL0mYHZ1U-3" target="ffYO8n2zBD1AL0mYHZ1U-5" edge="1"><mxGeometry relative="1" as="geometry"><Array as="points"><mxPoint x="145" y="235"/></Array></mxGeometry></mxCell><mxCell id="msQ-_wMWBh3BXoXiAgQr-57" style="edgeStyle=orthogonalEdgeStyle;orthogonalLoop=1;jettySize=auto;html=1;labelBackgroundColor=#ffffff;endFill=1;" parent="msQ-_wMWBh3BXoXiAgQr-0" source="msQ-_wMWBh3BXoXiAgQr-69" target="msQ-_wMWBh3BXoXiAgQr-56" edge="1"><mxGeometry relative="1" as="geometry"/></mxCell><mxCell id="msQ-_wMWBh3BXoXiAgQr-58" style="edgeStyle=orthogonalEdgeStyle;orthogonalLoop=1;jettySize=auto;html=1;entryX=0;entryY=0.5;entryDx=0;entryDy=0;entryPerimeter=0;endFill=1;" parent="msQ-_wMWBh3BXoXiAgQr-0" source="msQ-_wMWBh3BXoXiAgQr-69" target="ffYO8n2zBD1AL0mYHZ1U-3" edge="1"><mxGeometry relative="1" as="geometry"><Array as="points"><mxPoint x="535" y="90"/><mxPoint x="90" y="90"/><mxPoint x="90" y="165"/></Array></mxGeometry></mxCell><mxCell id="msQ-_wMWBh3BXoXiAgQr-70" style="edgeStyle=orthogonalEdgeStyle;orthogonalLoop=1;jettySize=auto;html=1;endFill=1;" parent="msQ-_wMWBh3BXoXiAgQr-0" source="msQ-_wMWBh3BXoXiAgQr-55" target="msQ-_wMWBh3BXoXiAgQr-69" edge="1"><mxGeometry relative="1" as="geometry"/></mxCell><mxCell id="msQ-_wMWBh3BXoXiAgQr-55" value="" style="points=[[0.25,0.25,0],[0.5,0,0],[0.75,0.25,0],[1,0.5,0],[0.75,0.75,0],[0.5,1,0],[0.25,0.75,0],[0,0.5,0]];shape=mxgraph.bpmn.gateway2;html=1;verticalLabelPosition=bottom;labelBackgroundColor=#ffffff;verticalAlign=top;align=center;perimeter=rhombusPerimeter;outlineConnect=0;outline=none;symbol=none;gwType=parallel;" parent="msQ-_wMWBh3BXoXiAgQr-0" vertex="1"><mxGeometry x="420" y="140" width="50" height="50" as="geometry"/></mxCell><mxCell id="msQ-_wMWBh3BXoXiAgQr-56" value="" style="points=[[0.145,0.145,0],[0.5,0,0],[0.855,0.145,0],[1,0.5,0],[0.855,0.855,0],[0.5,1,0],[0.145,0.855,0],[0,0.5,0]];shape=mxgraph.bpmn.event;html=1;verticalLabelPosition=bottom;labelBackgroundColor=#ffffff;verticalAlign=top;align=center;perimeter=ellipsePerimeter;outlineConnect=0;aspect=fixed;outline=end;symbol=terminate;" parent="msQ-_wMWBh3BXoXiAgQr-0" vertex="1"><mxGeometry x="520" y="220" width="30" height="30" as="geometry"/></mxCell><mxCell id="msQ-_wMWBh3BXoXiAgQr-74" style="edgeStyle=orthogonalEdgeStyle;orthogonalLoop=1;jettySize=auto;html=1;endFill=1;" parent="msQ-_wMWBh3BXoXiAgQr-0" source="msQ-_wMWBh3BXoXiAgQr-60" target="msQ-_wMWBh3BXoXiAgQr-72" edge="1"><mxGeometry relative="1" as="geometry"/></mxCell><mxCell id="msQ-_wMWBh3BXoXiAgQr-60" value="Bind sensor" style="points=[[0.25,0,0],[0.5,0,0],[0.75,0,0],[1,0.25,0],[1,0.5,0],[1,0.75,0],[0.75,1,0],[0.5,1,0],[0.25,1,0],[0,0.75,0],[0,0.5,0],[0,0.25,0]];shape=mxgraph.bpmn.task;whiteSpace=wrap;rectStyle=rounded;size=10;taskMarker=abstract;" parent="msQ-_wMWBh3BXoXiAgQr-0" vertex="1"><mxGeometry x="600" y="150" width="80" height="30" as="geometry"/></mxCell><mxCell id="msQ-_wMWBh3BXoXiAgQr-68" value="" style="points=[[0.145,0.145,0],[0.5,0,0],[0.855,0.145,0],[1,0.5,0],[0.855,0.855,0],[0.5,1,0],[0.145,0.855,0],[0,0.5,0]];shape=mxgraph.bpmn.event;html=1;verticalLabelPosition=bottom;labelBackgroundColor=#ffffff;verticalAlign=top;align=center;perimeter=ellipsePerimeter;outlineConnect=0;aspect=fixed;outline=end;symbol=terminate;" parent="msQ-_wMWBh3BXoXiAgQr-0" vertex="1"><mxGeometry x="740" y="220" width="30" height="30" as="geometry"/></mxCell><mxCell id="msQ-_wMWBh3BXoXiAgQr-71" style="edgeStyle=orthogonalEdgeStyle;orthogonalLoop=1;jettySize=auto;html=1;endFill=1;" parent="msQ-_wMWBh3BXoXiAgQr-0" source="msQ-_wMWBh3BXoXiAgQr-69" target="msQ-_wMWBh3BXoXiAgQr-60" edge="1"><mxGeometry relative="1" as="geometry"/></mxCell><mxCell id="msQ-_wMWBh3BXoXiAgQr-69" value="" style="points=[[0.25,0.25,0],[0.5,0,0],[0.75,0.25,0],[1,0.5,0],[0.75,0.75,0],[0.5,1,0],[0.25,0.75,0],[0,0.5,0]];shape=mxgraph.bpmn.gateway2;html=1;verticalLabelPosition=bottom;labelBackgroundColor=#ffffff;verticalAlign=top;align=center;perimeter=rhombusPerimeter;outlineConnect=0;outline=none;symbol=none;" parent="msQ-_wMWBh3BXoXiAgQr-0" vertex="1"><mxGeometry x="510" y="140" width="50" height="50" as="geometry"/></mxCell><mxCell id="msQ-_wMWBh3BXoXiAgQr-73" style="edgeStyle=orthogonalEdgeStyle;orthogonalLoop=1;jettySize=auto;html=1;endFill=1;" parent="msQ-_wMWBh3BXoXiAgQr-0" source="msQ-_wMWBh3BXoXiAgQr-72" target="msQ-_wMWBh3BXoXiAgQr-68" edge="1"><mxGeometry relative="1" as="geometry"/></mxCell><mxCell id="msQ-_wMWBh3BXoXiAgQr-75" style="edgeStyle=orthogonalEdgeStyle;orthogonalLoop=1;jettySize=auto;html=1;endFill=1;jumpStyle=arc;jumpSize=12;" parent="msQ-_wMWBh3BXoXiAgQr-0" source="msQ-_wMWBh3BXoXiAgQr-72" target="msQ-_wMWBh3BXoXiAgQr-55" edge="1"><mxGeometry relative="1" as="geometry"><Array as="points"><mxPoint x="755" y="110"/><mxPoint x="445" y="110"/></Array></mxGeometry></mxCell><mxCell id="msQ-_wMWBh3BXoXiAgQr-76" style="edgeStyle=orthogonalEdgeStyle;orthogonalLoop=1;jettySize=auto;html=1;entryX=0;entryY=0.5;entryDx=0;entryDy=0;entryPerimeter=0;endFill=1;" parent="msQ-_wMWBh3BXoXiAgQr-0" source="msQ-_wMWBh3BXoXiAgQr-72" target="ffYO8n2zBD1AL0mYHZ1U-3" edge="1"><mxGeometry relative="1" as="geometry"><Array as="points"><mxPoint x="810" y="165"/><mxPoint x="810" y="90"/><mxPoint x="90" y="90"/><mxPoint x="90" y="165"/></Array></mxGeometry></mxCell><mxCell id="msQ-_wMWBh3BXoXiAgQr-72" value="" style="points=[[0.25,0.25,0],[0.5,0,0],[0.75,0.25,0],[1,0.5,0],[0.75,0.75,0],[0.5,1,0],[0.25,0.75,0],[0,0.5,0]];shape=mxgraph.bpmn.gateway2;html=1;verticalLabelPosition=bottom;labelBackgroundColor=#ffffff;verticalAlign=top;align=center;perimeter=rhombusPerimeter;outlineConnect=0;outline=none;symbol=none;" parent="msQ-_wMWBh3BXoXiAgQr-0" vertex="1"><mxGeometry x="730" y="140" width="50" height="50" as="geometry"/></mxCell><mxCell id="V02ybIQ-wi3KzgMm7utV-3" value="Storage" style="swimlane;html=1;startSize=20;horizontal=0;" parent="V02ybIQ-wi3KzgMm7utV-2" vertex="1"><mxGeometry y="295" width="820" height="120" as="geometry"/></mxCell><mxCell id="msQ-_wMWBh3BXoXiAgQr-2" value="" style="shape=datastore;whiteSpace=wrap;html=1;labelPosition=center;verticalLabelPosition=bottom;align=center;verticalAlign=top;" parent="V02ybIQ-wi3KzgMm7utV-3" vertex="1"><mxGeometry x="280" y="25" width="40" height="40" as="geometry"/></mxCell><mxCell id="msQ-_wMWBh3BXoXiAgQr-14" value="" style="shape=datastore;whiteSpace=wrap;html=1;labelPosition=center;verticalLabelPosition=bottom;align=center;verticalAlign=top;" parent="V02ybIQ-wi3KzgMm7utV-3" vertex="1"><mxGeometry x="200" y="65" width="40" height="40" as="geometry"/></mxCell><mxCell id="V02ybIQ-wi3KzgMm7utV-4" value="&lt;div&gt;Sensor service&lt;/div&gt;" style="swimlane;html=1;startSize=20;horizontal=0;" parent="V02ybIQ-wi3KzgMm7utV-2" vertex="1"><mxGeometry y="415" width="820" height="175" as="geometry"/></mxCell><mxCell id="msQ-_wMWBh3BXoXiAgQr-82" style="edgeStyle=orthogonalEdgeStyle;jumpStyle=arc;jumpSize=12;orthogonalLoop=1;jettySize=auto;html=1;endFill=1;" parent="V02ybIQ-wi3KzgMm7utV-4" source="msQ-_wMWBh3BXoXiAgQr-77" target="msQ-_wMWBh3BXoXiAgQr-79" edge="1"><mxGeometry relative="1" as="geometry"/></mxCell><mxCell id="msQ-_wMWBh3BXoXiAgQr-77" value="" style="points=[[0.145,0.145,0],[0.5,0,0],[0.855,0.145,0],[1,0.5,0],[0.855,0.855,0],[0.5,1,0],[0.145,0.855,0],[0,0.5,0]];shape=mxgraph.bpmn.event;html=1;verticalLabelPosition=bottom;labelBackgroundColor=#ffffff;verticalAlign=top;align=center;perimeter=ellipsePerimeter;outlineConnect=0;aspect=fixed;outline=standard;symbol=general;" parent="V02ybIQ-wi3KzgMm7utV-4" vertex="1"><mxGeometry x="40" y="72.5" width="30" height="30" as="geometry"/></mxCell><mxCell id="msQ-_wMWBh3BXoXiAgQr-84" style="edgeStyle=orthogonalEdgeStyle;jumpStyle=arc;jumpSize=12;orthogonalLoop=1;jettySize=auto;html=1;endFill=1;" parent="V02ybIQ-wi3KzgMm7utV-4" source="msQ-_wMWBh3BXoXiAgQr-79" target="msQ-_wMWBh3BXoXiAgQr-83" edge="1"><mxGeometry relative="1" as="geometry"/></mxCell><mxCell id="msQ-_wMWBh3BXoXiAgQr-79" value="Get sensors" style="points=[[0.25,0,0],[0.5,0,0],[0.75,0,0],[1,0.25,0],[1,0.5,0],[1,0.75,0],[0.75,1,0],[0.5,1,0],[0.25,1,0],[0,0.75,0],[0,0.5,0],[0,0.25,0]];shape=mxgraph.bpmn.task;whiteSpace=wrap;rectStyle=rounded;size=10;taskMarker=abstract;" parent="V02ybIQ-wi3KzgMm7utV-4" vertex="1"><mxGeometry x="105" y="72.5" width="80" height="30" as="geometry"/></mxCell><mxCell id="msQ-_wMWBh3BXoXiAgQr-86" style="edgeStyle=orthogonalEdgeStyle;jumpStyle=arc;jumpSize=12;orthogonalLoop=1;jettySize=auto;html=1;endFill=1;" parent="V02ybIQ-wi3KzgMm7utV-4" source="msQ-_wMWBh3BXoXiAgQr-83" target="msQ-_wMWBh3BXoXiAgQr-85" edge="1"><mxGeometry relative="1" as="geometry"/></mxCell><mxCell id="msQ-_wMWBh3BXoXiAgQr-83" value="Call sensors" style="points=[[0.25,0,0],[0.5,0,0],[0.75,0,0],[1,0.25,0],[1,0.5,0],[1,0.75,0],[0.75,1,0],[0.5,1,0],[0.25,1,0],[0,0.75,0],[0,0.5,0],[0,0.25,0]];shape=mxgraph.bpmn.task;whiteSpace=wrap;rectStyle=rounded;size=10;taskMarker=abstract;" parent="V02ybIQ-wi3KzgMm7utV-4" vertex="1"><mxGeometry x="220" y="72.5" width="80" height="30" as="geometry"/></mxCell><mxCell id="msQ-_wMWBh3BXoXiAgQr-89" value="OK" style="edgeStyle=orthogonalEdgeStyle;jumpStyle=arc;jumpSize=12;orthogonalLoop=1;jettySize=auto;html=1;endFill=1;" parent="V02ybIQ-wi3KzgMm7utV-4" source="msQ-_wMWBh3BXoXiAgQr-85" target="msQ-_wMWBh3BXoXiAgQr-92" edge="1"><mxGeometry relative="1" as="geometry"><mxPoint x="440" y="29.999999999999773" as="targetPoint"/><Array as="points"><mxPoint x="375" y="35"/><mxPoint x="575" y="35"/></Array></mxGeometry></mxCell><mxCell id="msQ-_wMWBh3BXoXiAgQr-91" value="BAD" style="edgeStyle=orthogonalEdgeStyle;jumpStyle=arc;jumpSize=12;orthogonalLoop=1;jettySize=auto;html=1;entryX=0;entryY=0.5;entryDx=0;entryDy=0;entryPerimeter=0;endFill=1;" parent="V02ybIQ-wi3KzgMm7utV-4" source="msQ-_wMWBh3BXoXiAgQr-85" target="msQ-_wMWBh3BXoXiAgQr-90" edge="1"><mxGeometry x="0.2723" y="-5" relative="1" as="geometry"><Array as="points"><mxPoint x="375" y="140"/></Array><mxPoint as="offset"/></mxGeometry></mxCell><mxCell id="msQ-_wMWBh3BXoXiAgQr-85" value="" style="points=[[0.25,0.25,0],[0.5,0,0],[0.75,0.25,0],[1,0.5,0],[0.75,0.75,0],[0.5,1,0],[0.25,0.75,0],[0,0.5,0]];shape=mxgraph.bpmn.gateway2;html=1;verticalLabelPosition=bottom;labelBackgroundColor=#ffffff;verticalAlign=top;align=center;perimeter=rhombusPerimeter;outlineConnect=0;outline=none;symbol=none;" parent="V02ybIQ-wi3KzgMm7utV-4" vertex="1"><mxGeometry x="350" y="62.5" width="50" height="50" as="geometry"/></mxCell><mxCell id="msQ-_wMWBh3BXoXiAgQr-94" style="edgeStyle=orthogonalEdgeStyle;jumpStyle=arc;jumpSize=12;orthogonalLoop=1;jettySize=auto;html=1;endFill=1;" parent="V02ybIQ-wi3KzgMm7utV-4" source="msQ-_wMWBh3BXoXiAgQr-90" target="msQ-_wMWBh3BXoXiAgQr-92" edge="1"><mxGeometry relative="1" as="geometry"/></mxCell><mxCell id="msQ-_wMWBh3BXoXiAgQr-90" value="Create report" style="points=[[0.25,0,0],[0.5,0,0],[0.75,0,0],[1,0.25,0],[1,0.5,0],[1,0.75,0],[0.75,1,0],[0.5,1,0],[0.25,1,0],[0,0.75,0],[0,0.5,0],[0,0.25,0]];shape=mxgraph.bpmn.task;whiteSpace=wrap;rectStyle=rounded;size=10;taskMarker=abstract;" parent="V02ybIQ-wi3KzgMm7utV-4" vertex="1"><mxGeometry x="430" y="125" width="80" height="30" as="geometry"/></mxCell><mxCell id="msQ-_wMWBh3BXoXiAgQr-96" style="edgeStyle=orthogonalEdgeStyle;jumpStyle=arc;jumpSize=12;orthogonalLoop=1;jettySize=auto;html=1;endFill=1;" parent="V02ybIQ-wi3KzgMm7utV-4" source="msQ-_wMWBh3BXoXiAgQr-92" target="msQ-_wMWBh3BXoXiAgQr-95" edge="1"><mxGeometry relative="1" as="geometry"/></mxCell><mxCell id="msQ-_wMWBh3BXoXiAgQr-92" value="" style="points=[[0.25,0.25,0],[0.5,0,0],[0.75,0.25,0],[1,0.5,0],[0.75,0.75,0],[0.5,1,0],[0.25,0.75,0],[0,0.5,0]];shape=mxgraph.bpmn.gateway2;html=1;verticalLabelPosition=bottom;labelBackgroundColor=#ffffff;verticalAlign=top;align=center;perimeter=rhombusPerimeter;outlineConnect=0;outline=none;symbol=none;gwType=parallel;" parent="V02ybIQ-wi3KzgMm7utV-4" vertex="1"><mxGeometry x="550" y="62.5" width="50" height="50" as="geometry"/></mxCell><mxCell id="msQ-_wMWBh3BXoXiAgQr-101" style="edgeStyle=orthogonalEdgeStyle;jumpStyle=arc;jumpSize=12;orthogonalLoop=1;jettySize=auto;html=1;endFill=1;" parent="V02ybIQ-wi3KzgMm7utV-4" source="msQ-_wMWBh3BXoXiAgQr-95" target="msQ-_wMWBh3BXoXiAgQr-99" edge="1"><mxGeometry relative="1" as="geometry"/></mxCell><mxCell id="msQ-_wMWBh3BXoXiAgQr-95" value="Save sensor" style="points=[[0.25,0,0],[0.5,0,0],[0.75,0,0],[1,0.25,0],[1,0.5,0],[1,0.75,0],[0.75,1,0],[0.5,1,0],[0.25,1,0],[0,0.75,0],[0,0.5,0],[0,0.25,0]];shape=mxgraph.bpmn.task;whiteSpace=wrap;rectStyle=rounded;size=10;taskMarker=abstract;" parent="V02ybIQ-wi3KzgMm7utV-4" vertex="1"><mxGeometry x="630" y="72.5" width="80" height="30" as="geometry"/></mxCell><mxCell id="msQ-_wMWBh3BXoXiAgQr-99" value="" style="points=[[0.145,0.145,0],[0.5,0,0],[0.855,0.145,0],[1,0.5,0],[0.855,0.855,0],[0.5,1,0],[0.145,0.855,0],[0,0.5,0]];shape=mxgraph.bpmn.event;html=1;verticalLabelPosition=bottom;labelBackgroundColor=#ffffff;verticalAlign=top;align=center;perimeter=ellipsePerimeter;outlineConnect=0;aspect=fixed;outline=end;symbol=terminate;" parent="V02ybIQ-wi3KzgMm7utV-4" vertex="1"><mxGeometry x="740" y="72.5" width="30" height="30" as="geometry"/></mxCell><mxCell id="V02ybIQ-wi3KzgMm7utV-5" value="Operator" style="swimlane;html=1;startSize=20;horizontal=0;" parent="V02ybIQ-wi3KzgMm7utV-2" vertex="1"><mxGeometry y="590" width="820" height="200" as="geometry"/></mxCell><mxCell id="msQ-_wMWBh3BXoXiAgQr-105" value="" style="shape=datastore;whiteSpace=wrap;html=1;labelPosition=center;verticalLabelPosition=bottom;align=center;verticalAlign=top;" parent="V02ybIQ-wi3KzgMm7utV-5" vertex="1"><mxGeometry x="135" y="20" width="40" height="40" as="geometry"/></mxCell><mxCell id="msQ-_wMWBh3BXoXiAgQr-111" style="edgeStyle=orthogonalEdgeStyle;jumpStyle=arc;jumpSize=12;orthogonalLoop=1;jettySize=auto;html=1;endFill=1;" parent="V02ybIQ-wi3KzgMm7utV-5" source="msQ-_wMWBh3BXoXiAgQr-108" target="msQ-_wMWBh3BXoXiAgQr-110" edge="1"><mxGeometry relative="1" as="geometry"/></mxCell><mxCell id="msQ-_wMWBh3BXoXiAgQr-108" value="" style="points=[[0.145,0.145,0],[0.5,0,0],[0.855,0.145,0],[1,0.5,0],[0.855,0.855,0],[0.5,1,0],[0.145,0.855,0],[0,0.5,0]];shape=mxgraph.bpmn.event;html=1;verticalLabelPosition=bottom;labelBackgroundColor=#ffffff;verticalAlign=top;align=center;perimeter=ellipsePerimeter;outlineConnect=0;aspect=fixed;outline=standard;symbol=general;" parent="V02ybIQ-wi3KzgMm7utV-5" vertex="1"><mxGeometry x="40" y="120" width="30" height="30" as="geometry"/></mxCell><mxCell id="msQ-_wMWBh3BXoXiAgQr-115" style="edgeStyle=orthogonalEdgeStyle;jumpStyle=arc;jumpSize=12;orthogonalLoop=1;jettySize=auto;html=1;endFill=1;" parent="V02ybIQ-wi3KzgMm7utV-5" source="msQ-_wMWBh3BXoXiAgQr-110" target="msQ-_wMWBh3BXoXiAgQr-114" edge="1"><mxGeometry relative="1" as="geometry"/></mxCell><mxCell id="msQ-_wMWBh3BXoXiAgQr-110" value="Check reports" style="points=[[0.25,0,0],[0.5,0,0],[0.75,0,0],[1,0.25,0],[1,0.5,0],[1,0.75,0],[0.75,1,0],[0.5,1,0],[0.25,1,0],[0,0.75,0],[0,0.5,0],[0,0.25,0]];shape=mxgraph.bpmn.task;whiteSpace=wrap;rectStyle=rounded;size=10;taskMarker=abstract;" parent="V02ybIQ-wi3KzgMm7utV-5" vertex="1"><mxGeometry x="115" y="120" width="80" height="30" as="geometry"/></mxCell><mxCell id="msQ-_wMWBh3BXoXiAgQr-112" value="" style="endArrow=blockThin;html=1;labelPosition=left;verticalLabelPosition=middle;align=right;verticalAlign=middle;dashed=1;dashPattern=8 4;endFill=0;startArrow=oval;startFill=0;endSize=6;startSize=4;edgeStyle=orthogonalEdgeStyle;entryX=0.5;entryY=0;entryDx=0;entryDy=0;entryPerimeter=0;exitX=0.5;exitY=1;exitDx=0;exitDy=0;" parent="V02ybIQ-wi3KzgMm7utV-5" source="msQ-_wMWBh3BXoXiAgQr-105" target="msQ-_wMWBh3BXoXiAgQr-110" edge="1"><mxGeometry relative="1" as="geometry"><mxPoint x="210" y="-200.00000000000023" as="sourcePoint"/><mxPoint x="155" y="-92.50000000000023" as="targetPoint"/></mxGeometry></mxCell><mxCell id="msQ-_wMWBh3BXoXiAgQr-113" value="" style="shape=message;html=1;outlineConnect=0;labelPosition=left;verticalLabelPosition=middle;align=right;verticalAlign=middle;spacingRight=5;labelBackgroundColor=#ffffff;fillColor=#C0C0C0;" parent="msQ-_wMWBh3BXoXiAgQr-112" vertex="1"><mxGeometry width="24" height="16" relative="1" as="geometry"><mxPoint x="-12" y="-11" as="offset"/></mxGeometry></mxCell><mxCell id="BHtO6htEGBXwpEhlEKzQ-2" value="BAD" style="edgeStyle=orthogonalEdgeStyle;jumpStyle=arc;jumpSize=12;orthogonalLoop=1;jettySize=auto;html=1;endFill=1;entryX=0;entryY=0.5;entryDx=0;entryDy=0;entryPerimeter=0;" parent="V02ybIQ-wi3KzgMm7utV-5" source="msQ-_wMWBh3BXoXiAgQr-114" target="BHtO6htEGBXwpEhlEKzQ-0" edge="1"><mxGeometry relative="1" as="geometry"><Array as="points"><mxPoint x="265" y="175"/></Array></mxGeometry></mxCell><mxCell id="BHtO6htEGBXwpEhlEKzQ-5" value="OK" style="edgeStyle=orthogonalEdgeStyle;jumpStyle=arc;jumpSize=12;orthogonalLoop=1;jettySize=auto;html=1;entryX=0;entryY=0.5;entryDx=0;entryDy=0;entryPerimeter=0;endFill=1;" parent="V02ybIQ-wi3KzgMm7utV-5" source="msQ-_wMWBh3BXoXiAgQr-114" target="BHtO6htEGBXwpEhlEKzQ-3" edge="1"><mxGeometry relative="1" as="geometry"><Array as="points"><mxPoint x="265" y="90"/><mxPoint x="560" y="90"/><mxPoint x="560" y="135"/></Array></mxGeometry></mxCell><mxCell id="msQ-_wMWBh3BXoXiAgQr-114" value="" style="points=[[0.25,0.25,0],[0.5,0,0],[0.75,0.25,0],[1,0.5,0],[0.75,0.75,0],[0.5,1,0],[0.25,0.75,0],[0,0.5,0]];shape=mxgraph.bpmn.gateway2;html=1;verticalLabelPosition=bottom;labelBackgroundColor=#ffffff;verticalAlign=top;align=center;perimeter=rhombusPerimeter;outlineConnect=0;outline=none;symbol=none;" parent="V02ybIQ-wi3KzgMm7utV-5" vertex="1"><mxGeometry x="240" y="110" width="50" height="50" as="geometry"/></mxCell><mxCell id="BHtO6htEGBXwpEhlEKzQ-6" style="edgeStyle=orthogonalEdgeStyle;jumpStyle=arc;jumpSize=12;orthogonalLoop=1;jettySize=auto;html=1;entryX=0;entryY=0.5;entryDx=0;entryDy=0;entryPerimeter=0;endFill=1;" parent="V02ybIQ-wi3KzgMm7utV-5" source="BHtO6htEGBXwpEhlEKzQ-0" target="BHtO6htEGBXwpEhlEKzQ-3" edge="1"><mxGeometry relative="1" as="geometry"><Array as="points"><mxPoint x="560" y="175"/><mxPoint x="560" y="135"/></Array></mxGeometry></mxCell><mxCell id="BHtO6htEGBXwpEhlEKzQ-0" value="Organize repair crew" style="points=[[0.25,0,0],[0.5,0,0],[0.75,0,0],[1,0.25,0],[1,0.5,0],[1,0.75,0],[0.75,1,0],[0.5,1,0],[0.25,1,0],[0,0.75,0],[0,0.5,0],[0,0.25,0]];shape=mxgraph.bpmn.task;whiteSpace=wrap;rectStyle=rounded;size=10;taskMarker=abstract;" parent="V02ybIQ-wi3KzgMm7utV-5" vertex="1"><mxGeometry x="370" y="160" width="80" height="30" as="geometry"/></mxCell><mxCell id="BHtO6htEGBXwpEhlEKzQ-3" value="" style="points=[[0.145,0.145,0],[0.5,0,0],[0.855,0.145,0],[1,0.5,0],[0.855,0.855,0],[0.5,1,0],[0.145,0.855,0],[0,0.5,0]];shape=mxgraph.bpmn.event;html=1;verticalLabelPosition=bottom;labelBackgroundColor=#ffffff;verticalAlign=top;align=center;perimeter=ellipsePerimeter;outlineConnect=0;aspect=fixed;outline=end;symbol=terminate;" parent="V02ybIQ-wi3KzgMm7utV-5" vertex="1"><mxGeometry x="740" y="120" width="30" height="30" as="geometry"/></mxCell><mxCell id="msQ-_wMWBh3BXoXiAgQr-15" value="" style="endArrow=blockThin;html=1;labelPosition=left;verticalLabelPosition=middle;align=right;verticalAlign=middle;dashed=1;dashPattern=8 4;endFill=0;startArrow=oval;startFill=0;endSize=6;startSize=4;" parent="V02ybIQ-wi3KzgMm7utV-2" source="ffYO8n2zBD1AL0mYHZ1U-4" target="msQ-_wMWBh3BXoXiAgQr-2" edge="1"><mxGeometry relative="1" as="geometry"><mxPoint x="70" y="250" as="sourcePoint"/><mxPoint x="230" y="250" as="targetPoint"/></mxGeometry></mxCell><mxCell id="msQ-_wMWBh3BXoXiAgQr-16" value="" style="shape=message;html=1;outlineConnect=0;labelPosition=left;verticalLabelPosition=middle;align=right;verticalAlign=middle;spacingRight=5;labelBackgroundColor=#ffffff;" parent="msQ-_wMWBh3BXoXiAgQr-15" vertex="1"><mxGeometry width="24" height="16" relative="1" as="geometry"><mxPoint x="-12" y="-46" as="offset"/></mxGeometry></mxCell><mxCell id="msQ-_wMWBh3BXoXiAgQr-17" value="" style="endArrow=blockThin;html=1;labelPosition=left;verticalLabelPosition=middle;align=right;verticalAlign=middle;dashed=1;dashPattern=8 4;endFill=0;startArrow=oval;startFill=0;endSize=6;startSize=4;shadow=0;sketch=0;labelBackgroundColor=none;" parent="V02ybIQ-wi3KzgMm7utV-2" source="ffYO8n2zBD1AL0mYHZ1U-5" target="msQ-_wMWBh3BXoXiAgQr-14" edge="1"><mxGeometry relative="1" as="geometry"><mxPoint x="70" y="250" as="sourcePoint"/><mxPoint x="230" y="250" as="targetPoint"/></mxGeometry></mxCell><mxCell id="msQ-_wMWBh3BXoXiAgQr-18" value="" style="shape=message;html=1;outlineConnect=0;labelPosition=left;verticalLabelPosition=middle;align=right;verticalAlign=middle;spacingRight=5;labelBackgroundColor=#ffffff;" parent="msQ-_wMWBh3BXoXiAgQr-17" vertex="1"><mxGeometry width="24" height="16" relative="1" as="geometry"><mxPoint x="-12" y="-11" as="offset"/></mxGeometry></mxCell><mxCell id="msQ-_wMWBh3BXoXiAgQr-62" value="" style="endArrow=blockThin;html=1;labelPosition=left;verticalLabelPosition=middle;align=right;verticalAlign=middle;dashed=1;dashPattern=8 4;endFill=0;startArrow=oval;startFill=0;endSize=6;startSize=4;edgeStyle=orthogonalEdgeStyle;entryX=0.25;entryY=1;entryDx=0;entryDy=0;entryPerimeter=0;exitX=1;exitY=0.7;exitDx=0;exitDy=0;" parent="V02ybIQ-wi3KzgMm7utV-2" source="msQ-_wMWBh3BXoXiAgQr-2" target="msQ-_wMWBh3BXoXiAgQr-60" edge="1"><mxGeometry relative="1" as="geometry"><mxPoint x="360" y="330" as="sourcePoint"/><mxPoint x="520" y="330" as="targetPoint"/></mxGeometry></mxCell><mxCell id="msQ-_wMWBh3BXoXiAgQr-63" value="" style="shape=message;html=1;outlineConnect=0;labelPosition=left;verticalLabelPosition=middle;align=right;verticalAlign=middle;spacingRight=5;labelBackgroundColor=#ffffff;fillColor=#C0C0C0;" parent="msQ-_wMWBh3BXoXiAgQr-62" vertex="1"><mxGeometry width="24" height="16" relative="1" as="geometry"><mxPoint x="-14" y="-4" as="offset"/></mxGeometry></mxCell><mxCell id="msQ-_wMWBh3BXoXiAgQr-64" value="" style="endArrow=blockThin;html=1;labelPosition=left;verticalLabelPosition=middle;align=right;verticalAlign=middle;dashed=1;dashPattern=8 4;endFill=0;startArrow=oval;startFill=0;endSize=6;startSize=4;edgeStyle=orthogonalEdgeStyle;entryX=0.5;entryY=1;entryDx=0;entryDy=0;entryPerimeter=0;exitX=1;exitY=0.3;exitDx=0;exitDy=0;" parent="V02ybIQ-wi3KzgMm7utV-2" source="msQ-_wMWBh3BXoXiAgQr-14" target="msQ-_wMWBh3BXoXiAgQr-60" edge="1"><mxGeometry relative="1" as="geometry"><mxPoint x="330" y="340.0000000000002" as="sourcePoint"/><mxPoint x="570" y="210" as="targetPoint"/></mxGeometry></mxCell><mxCell id="msQ-_wMWBh3BXoXiAgQr-65" value="" style="shape=message;html=1;outlineConnect=0;labelPosition=left;verticalLabelPosition=middle;align=right;verticalAlign=middle;spacingRight=5;labelBackgroundColor=#ffffff;fillColor=#C0C0C0;" parent="msQ-_wMWBh3BXoXiAgQr-64" vertex="1"><mxGeometry width="24" height="16" relative="1" as="geometry"><mxPoint x="8" y="-8" as="offset"/></mxGeometry></mxCell><mxCell id="msQ-_wMWBh3BXoXiAgQr-66" value="" style="endArrow=blockThin;html=1;labelPosition=left;verticalLabelPosition=middle;align=right;verticalAlign=middle;dashed=1;dashPattern=8 4;endFill=0;startArrow=oval;startFill=0;endSize=6;startSize=4;shadow=0;sketch=0;labelBackgroundColor=none;edgeStyle=orthogonalEdgeStyle;exitX=0.75;exitY=1;exitDx=0;exitDy=0;exitPerimeter=0;entryX=1;entryY=0.7;entryDx=0;entryDy=0;" parent="V02ybIQ-wi3KzgMm7utV-2" source="msQ-_wMWBh3BXoXiAgQr-60" target="msQ-_wMWBh3BXoXiAgQr-14" edge="1"><mxGeometry relative="1" as="geometry"><mxPoint x="230" y="250" as="sourcePoint"/><mxPoint x="230" y="369.9999999999998" as="targetPoint"/></mxGeometry></mxCell><mxCell id="msQ-_wMWBh3BXoXiAgQr-67" value="" style="shape=message;html=1;outlineConnect=0;labelPosition=left;verticalLabelPosition=middle;align=right;verticalAlign=middle;spacingRight=5;labelBackgroundColor=#ffffff;" parent="msQ-_wMWBh3BXoXiAgQr-66" vertex="1"><mxGeometry width="24" height="16" relative="1" as="geometry"><mxPoint x="-12" y="-4" as="offset"/></mxGeometry></mxCell><mxCell id="msQ-_wMWBh3BXoXiAgQr-80" value="" style="endArrow=blockThin;html=1;labelPosition=left;verticalLabelPosition=middle;align=right;verticalAlign=middle;dashed=1;dashPattern=8 4;endFill=0;startArrow=oval;startFill=0;endSize=6;startSize=4;edgeStyle=orthogonalEdgeStyle;entryX=0.5;entryY=0;entryDx=0;entryDy=0;entryPerimeter=0;exitX=0;exitY=0.5;exitDx=0;exitDy=0;" parent="V02ybIQ-wi3KzgMm7utV-2" source="msQ-_wMWBh3BXoXiAgQr-14" target="msQ-_wMWBh3BXoXiAgQr-79" edge="1"><mxGeometry relative="1" as="geometry"><mxPoint x="330" y="357.9999999999998" as="sourcePoint"/><mxPoint x="630" y="210" as="targetPoint"/></mxGeometry></mxCell><mxCell id="msQ-_wMWBh3BXoXiAgQr-81" value="" style="shape=message;html=1;outlineConnect=0;labelPosition=left;verticalLabelPosition=middle;align=right;verticalAlign=middle;spacingRight=5;labelBackgroundColor=#ffffff;fillColor=#C0C0C0;" parent="msQ-_wMWBh3BXoXiAgQr-80" vertex="1"><mxGeometry width="24" height="16" relative="1" as="geometry"><mxPoint x="-12" y="14" as="offset"/></mxGeometry></mxCell><mxCell id="msQ-_wMWBh3BXoXiAgQr-97" value="" style="endArrow=blockThin;html=1;labelPosition=left;verticalLabelPosition=middle;align=right;verticalAlign=middle;dashed=1;dashPattern=8 4;endFill=0;startArrow=oval;startFill=0;endSize=6;startSize=4;shadow=0;sketch=0;labelBackgroundColor=none;edgeStyle=orthogonalEdgeStyle;exitX=0.5;exitY=0;exitDx=0;exitDy=0;exitPerimeter=0;entryX=0.5;entryY=1;entryDx=0;entryDy=0;" parent="V02ybIQ-wi3KzgMm7utV-2" source="msQ-_wMWBh3BXoXiAgQr-95" target="msQ-_wMWBh3BXoXiAgQr-14" edge="1"><mxGeometry relative="1" as="geometry"><mxPoint x="670" y="210" as="sourcePoint"/><mxPoint x="250" y="397.9999999999998" as="targetPoint"/><Array as="points"><mxPoint x="670" y="430"/><mxPoint x="220" y="430"/></Array></mxGeometry></mxCell><mxCell id="msQ-_wMWBh3BXoXiAgQr-98" value="" style="shape=message;html=1;outlineConnect=0;labelPosition=left;verticalLabelPosition=middle;align=right;verticalAlign=middle;spacingRight=5;labelBackgroundColor=#ffffff;" parent="msQ-_wMWBh3BXoXiAgQr-97" vertex="1"><mxGeometry width="24" height="16" relative="1" as="geometry"><mxPoint x="-12" y="-4" as="offset"/></mxGeometry></mxCell><mxCell id="msQ-_wMWBh3BXoXiAgQr-106" value="" style="endArrow=blockThin;html=1;labelPosition=left;verticalLabelPosition=middle;align=right;verticalAlign=middle;dashed=1;dashPattern=8 4;endFill=0;startArrow=oval;startFill=0;endSize=6;startSize=4;shadow=0;sketch=0;labelBackgroundColor=none;exitX=0.5;exitY=1;exitDx=0;exitDy=0;exitPerimeter=0;entryX=1;entryY=0.5;entryDx=0;entryDy=0;edgeStyle=orthogonalEdgeStyle;" parent="V02ybIQ-wi3KzgMm7utV-2" source="msQ-_wMWBh3BXoXiAgQr-90" target="msQ-_wMWBh3BXoXiAgQr-105" edge="1"><mxGeometry relative="1" as="geometry"><mxPoint x="230" y="280" as="sourcePoint"/><mxPoint x="230" y="369.9999999999998" as="targetPoint"/></mxGeometry></mxCell><mxCell id="msQ-_wMWBh3BXoXiAgQr-107" value="" style="shape=message;html=1;outlineConnect=0;labelPosition=left;verticalLabelPosition=middle;align=right;verticalAlign=middle;spacingRight=5;labelBackgroundColor=#ffffff;" parent="msQ-_wMWBh3BXoXiAgQr-106" vertex="1"><mxGeometry width="24" height="16" relative="1" as="geometry"><mxPoint x="-22" y="-8" as="offset"/></mxGeometry></mxCell></root></mxGraphModel></diagram><diagram id="wjE5T2botAeUIAQliq6q" name="Page-3"><mxGraphModel dx="766" dy="528" grid="1" gridSize="10" guides="1" tooltips="1" connect="1" arrows="1" fold="1" page="1" pageScale="1" pageWidth="850" pageHeight="1100" math="0" shadow="0"><root><mxCell id="bwaNkE1lt40OiBUBrCdM-0"/><mxCell id="bwaNkE1lt40OiBUBrCdM-1" parent="bwaNkE1lt40OiBUBrCdM-0"/></root></mxGraphModel></diagram></mxfile>